<svg width="19" height="16" viewBox="0 0 19 16" fill="none" xmlns="http://www.w3.org/2000/svg">
<path id="Vector" d="M5.97873e-09 4.67764L9.132 9.42707C9.2236 9.4747 9.32533 9.49957 9.42857 9.49957C9.53182 9.49957 9.63354 9.4747 9.72514 9.42707L18.8571 4.6785V12.9285C18.8572 13.64 18.585 14.3246 18.0963 14.8418C17.6076 15.359 16.9395 15.6696 16.2291 15.7099L16.0714 15.7142H2.78571C2.07417 15.7143 1.38958 15.442 0.872374 14.9534C0.355172 14.4647 0.0445703 13.7966 0.00428582 13.0862L5.97873e-09 12.9285V4.67764ZM2.78571 0.285645H16.0714C16.783 0.285598 17.4676 0.557834 17.9848 1.04651C18.502 1.53518 18.8126 2.20324 18.8529 2.91364L18.8571 3.07136V3.22907L9.42857 8.13193L5.97873e-09 3.22907V3.07136C-4.65829e-05 2.35981 0.272189 1.67522 0.760861 1.15802C1.24953 0.640816 1.91759 0.330215 2.628 0.28993L2.78571 0.285645Z" fill="#DBD8E3"/>
</svg>
