<svg width="21" height="20" viewBox="0 0 21 20" fill="none" xmlns="http://www.w3.org/2000/svg">
<path fill-rule="evenodd" clip-rule="evenodd" d="M15.6332 19.9823C14.1932 19.9293 10.1122 19.3653 5.83822 15.0923C1.56522 10.8183 1.00222 6.73834 0.948222 5.29734C0.868222 3.10134 2.55022 0.968337 4.49322 0.135337C4.7272 0.0343036 4.98342 -0.00416281 5.23675 0.0237122C5.49008 0.0515872 5.73181 0.144846 5.93822 0.294337C7.53822 1.46034 8.64222 3.22434 9.59022 4.61134C9.79881 4.91607 9.88799 5.28688 9.84078 5.65313C9.79357 6.01938 9.61327 6.35546 9.33422 6.59734L7.38322 8.04634C7.28896 8.1144 7.22262 8.21437 7.1965 8.32766C7.17038 8.44095 7.18627 8.55988 7.24122 8.66234C7.68322 9.46534 8.46922 10.6613 9.36922 11.5613C10.2702 12.4613 11.5222 13.2993 12.3812 13.7913C12.4889 13.8518 12.6157 13.8687 12.7355 13.8386C12.8553 13.8084 12.9589 13.7336 13.0252 13.6293L14.2952 11.6963C14.5287 11.3862 14.8731 11.1784 15.2564 11.1165C15.6396 11.0546 16.032 11.1434 16.3512 11.3643C17.7582 12.3383 19.4002 13.4233 20.6022 14.9623C20.7639 15.1702 20.8667 15.4177 20.8999 15.679C20.9332 15.9402 20.8956 16.2056 20.7912 16.4473C19.9542 18.4003 17.8362 20.0633 15.6332 19.9823Z" fill="#DBD8E3"/>
</svg>
